<?xml version="1.0" standalone="no"?>
<!DOCTYPE svg PUBLIC "-//W3C//DTD SVG 20010904//EN"
 "http://www.w3.org/TR/2001/REC-SVG-20010904/DTD/svg10.dtd">
<svg version="1.0" xmlns="http://www.w3.org/2000/svg"
 width="1475.000000pt" height="1475.000000pt" viewBox="0 0 1475.000000 1475.000000"
 preserveAspectRatio="xMidYMid meet">
<metadata>
Created by potrace 1.16, written by Peter Selinger 2001-2019
</metadata>
<g transform="translate(0.000000,1475.000000) scale(0.100000,-0.100000)"
fill="#9528f5" stroke="none">
<path d="M8480 11659 c0 -7 -23 -10 -65 -7 -36 1 -65 -1 -65 -6 0 -4 -15 -5
-34 -2 -20 4 -36 2 -38 -4 -1 -5 -21 -11 -43 -12 -22 -2 -42 -6 -45 -10 -4 -4
-24 -9 -45 -10 -22 -2 -43 -7 -46 -11 -4 -5 -18 -10 -33 -10 -14 -1 -26 -5
-26 -9 0 -3 -14 -9 -31 -13 -46 -10 -287 -109 -379 -155 -44 -22 -80 -38 -80
-34 0 3 -7 -1 -15 -10 -9 -8 -23 -12 -32 -9 -9 4 -14 2 -10 -3 3 -6 -33 -33
-81 -60 -48 -28 -121 -72 -163 -98 l-76 -47 -104 62 c-57 34 -160 91 -229 125
-69 35 -131 69 -137 74 -7 6 -13 9 -13 6 0 -2 -35 9 -77 26 -108 42 -307 104
-381 118 -34 7 -62 15 -62 19 0 3 -28 7 -61 8 -34 1 -64 5 -68 10 -7 10 -284
11 -291 1 -3 -4 -33 -9 -65 -10 -33 -2 -63 -7 -66 -11 -3 -4 -19 -9 -35 -10
-16 -1 -31 -4 -34 -8 -3 -3 -27 -13 -55 -23 -197 -72 -398 -231 -511 -406 -35
-56 -126 -225 -129 -240 -5 -32 -30 -100 -37 -100 -5 0 -7 -4 -4 -8 3 -5 -3
-45 -14 -89 -10 -43 -22 -103 -26 -131 -3 -29 -9 -52 -13 -52 -3 0 -6 -19 -7
-42 -1 -24 -5 -149 -10 -280 -5 -130 -6 -234 -1 -231 6 4 10 -67 12 -204 0
-27 3 -50 7 -53 4 -3 8 -35 10 -70 2 -36 6 -68 11 -71 4 -3 8 -32 9 -65 2 -32
6 -62 11 -65 5 -3 9 -28 10 -55 1 -27 5 -52 10 -55 5 -4 9 -24 10 -45 0 -22 4
-42 9 -45 5 -3 10 -21 11 -40 1 -19 5 -36 8 -39 14 -13 62 -232 53 -245 -36
-51 -292 -385 -313 -408 -21 -22 -31 -26 -54 -21 -18 4 -32 2 -37 -5 -3 -7
-31 -13 -61 -14 -30 -1 -57 -5 -60 -10 -3 -5 -31 -9 -63 -10 -31 -1 -56 -4
-56 -7 0 -3 -51 -14 -112 -24 -62 -10 -234 -42 -383 -72 -148 -29 -274 -50
-278 -47 -5 3 -13 0 -17 -6 -4 -7 -24 -13 -46 -14 -21 -1 -42 -5 -45 -10 -3
-4 -21 -9 -40 -10 -19 -1 -37 -6 -40 -11 -4 -5 -25 -9 -48 -9 -22 0 -38 -4
-35 -8 5 -9 -23 -14 -58 -11 -10 1 -18 -3 -18 -8 0 -6 -6 -10 -13 -10 -20 0
-443 -122 -562 -161 -55 -19 -104 -34 -110 -34 -5 -1 -20 -7 -33 -13 -12 -7
-26 -10 -31 -7 -5 3 -11 2 -13 -3 -1 -4 -70 -34 -153 -66 -82 -33 -166 -67
-185 -76 -20 -10 -44 -20 -55 -22 -11 -1 -26 -9 -33 -16 -8 -7 -17 -10 -22 -7
-5 3 -10 1 -12 -4 -1 -5 -10 -11 -18 -13 -8 -2 -21 -9 -28 -16 -8 -7 -17 -10
-22 -7 -5 3 -10 1 -12 -4 -1 -5 -10 -11 -18 -13 -8 -2 -17 -6 -20 -9 -3 -3
-59 -37 -125 -76 -66 -39 -149 -92 -184 -118 -35 -25 -60 -41 -56 -33 4 7 -2
4 -12 -8 -10 -12 -60 -59 -112 -105 -122 -110 -140 -126 -122 -114 8 6 -9 -19
-37 -54 -56 -70 -122 -190 -143 -258 -7 -24 -15 -43 -18 -43 -4 0 -8 -21 -9
-47 -1 -27 -6 -49 -12 -51 -13 -5 -13 -142 0 -142 6 0 10 -12 10 -26 0 -14 7
-53 15 -86 73 -280 323 -526 760 -750 66 -33 123 -66 127 -72 4 -6 8 -8 8 -4
0 4 46 -13 103 -36 56 -24 149 -60 207 -81 58 -21 107 -41 110 -44 3 -3 16 -7
30 -9 14 -1 27 -7 28 -12 2 -6 7 -8 12 -5 4 2 38 -6 76 -18 38 -13 117 -36
175 -52 59 -15 113 -31 120 -35 9 -6 1 -34 -36 -117 -26 -59 -52 -111 -57
-114 -6 -3 -9 -9 -8 -13 3 -11 -42 -116 -49 -116 -4 0 -8 -6 -8 -13 0 -19
-154 -392 -163 -395 -5 -2 -7 -9 -4 -16 3 -8 -1 -20 -8 -27 -7 -8 -14 -21 -15
-29 -1 -8 -33 -100 -71 -205 -38 -104 -87 -239 -107 -300 -21 -60 -41 -112
-45 -115 -3 -3 -7 -16 -7 -29 -1 -13 -7 -27 -13 -31 -6 -4 -8 -14 -5 -22 3 -8
-1 -23 -10 -32 -9 -9 -14 -20 -11 -24 3 -5 -4 -37 -15 -73 -29 -90 -159 -607
-159 -630 0 -10 -3 -19 -7 -19 -5 0 -9 -21 -10 -46 -1 -26 -5 -50 -10 -53 -5
-3 -9 -28 -10 -55 -1 -27 -7 -52 -14 -56 -6 -5 -9 -15 -6 -24 8 -20 -3 -107
-12 -102 -4 3 -7 -32 -8 -77 -1 -45 -6 -83 -11 -85 -6 -2 -8 -28 -5 -63 3 -32
2 -59 -3 -59 -5 0 -9 -103 -9 -230 0 -127 4 -230 9 -230 5 0 6 -20 4 -45 -3
-24 -2 -45 3 -47 5 -2 10 -32 11 -68 2 -36 6 -68 11 -71 4 -3 9 -24 10 -47 1
-23 4 -42 8 -42 7 0 34 -109 32 -130 -1 -8 2 -17 6 -20 4 -3 15 -27 26 -55 28
-75 75 -173 116 -242 21 -33 35 -64 31 -69 -4 -4 -1 -4 6 0 6 4 12 3 12 -2 0
-17 125 -145 198 -203 191 -153 398 -222 662 -222 161 -1 273 16 447 65 59 16
116 31 126 31 9 1 17 4 17 8 0 7 91 35 103 31 4 -1 7 2 7 6 0 8 89 48 120 54
8 2 17 6 20 9 8 9 269 140 276 139 4 -1 10 2 13 7 3 4 49 35 101 67 106 67
264 174 325 220 21 17 36 24 31 16 -4 -8 1 -5 11 6 20 24 269 224 275 221 1
-1 2 0 1 1 -1 2 80 76 180 165 284 252 710 684 1022 1037 22 25 44 45 50 45 5
0 10 5 10 12 0 6 45 65 100 130 56 65 146 173 200 240 55 68 103 123 107 123
4 0 8 5 8 11 0 7 24 42 53 78 161 200 486 638 619 835 8 11 45 -32 40 -46 -1
-5 2 -8 7 -8 5 0 51 -57 102 -127 137 -187 380 -500 529 -682 47 -57 83 -109
82 -115 -2 -6 -1 -8 3 -4 4 4 64 -59 133 -140 140 -164 247 -284 396 -446 56
-60 100 -112 99 -116 -1 -5 5 -14 15 -22 15 -11 15 -11 5 2 -6 8 102 -97 240
-235 137 -137 250 -253 249 -257 -1 -3 6 -12 15 -20 14 -11 16 -11 8 2 -6 12
26 -16 105 -90 3 -3 33 -31 66 -62 34 -31 59 -60 55 -63 -3 -4 -1 -5 4 -3 10
3 286 -226 282 -234 -1 -1 0 -2 2 -1 2 1 44 -30 95 -69 50 -39 121 -93 159
-120 37 -27 67 -54 67 -60 0 -6 3 -9 6 -6 3 4 76 -40 162 -96 86 -56 180 -115
207 -131 28 -15 53 -33 57 -39 4 -6 8 -8 8 -5 0 4 66 -26 148 -65 81 -40 168
-81 195 -91 26 -10 47 -22 47 -26 0 -5 3 -8 8 -7 11 4 102 -24 102 -31 0 -4 8
-7 18 -8 9 -1 55 -13 102 -27 362 -109 681 -98 958 34 56 27 104 48 107 47 2
-1 10 5 17 14 7 9 35 33 63 55 27 21 66 53 85 71 19 17 46 41 60 53 14 12 18
18 10 14 -8 -5 2 12 21 36 64 79 179 288 179 328 0 6 3 12 8 12 4 0 8 12 9 26
0 15 5 29 10 33 4 3 9 17 11 31 1 13 6 27 10 30 4 3 8 23 9 44 1 22 5 42 10
45 4 3 9 31 11 61 2 30 6 57 10 60 4 3 9 46 11 95 2 50 6 92 10 95 9 8 7 419
-2 413 -5 -3 -7 24 -5 60 2 37 -1 63 -6 60 -5 -4 -6 17 -3 50 5 34 3 57 -3 59
-6 2 -11 32 -13 68 -1 36 -6 68 -10 71 -5 3 -9 31 -10 62 0 31 -5 53 -9 51 -8
-5 -13 31 -10 76 1 13 -3 27 -9 31 -6 3 -11 23 -12 45 -1 21 -4 41 -7 44 -3 3
-19 57 -34 120 -15 63 -55 210 -88 325 -33 116 -61 215 -62 220 0 6 -5 13 -9
16 -5 4 -10 19 -10 35 -1 16 -6 32 -11 36 -5 3 -10 15 -11 25 0 10 -4 24 -8
31 -5 6 -30 74 -57 149 -26 76 -69 194 -95 263 -26 69 -47 132 -48 140 0 8 -4
18 -9 21 -5 3 -10 12 -12 20 -1 8 -7 23 -13 34 -5 11 -8 27 -5 35 2 8 1 12 -3
8 -7 -7 -179 384 -187 424 -2 7 -9 19 -16 26 -7 8 -10 17 -7 22 3 5 2 10 -3
12 -7 3 -200 409 -205 431 -1 6 -8 18 -15 25 -7 8 -10 18 -7 23 4 5 1 9 -4 9
-28 0 -6 20 32 30 23 6 125 38 227 72 102 33 191 61 198 61 6 0 12 4 12 9 0 4
5 8 11 8 14 0 325 133 400 171 33 16 59 27 59 23 0 -3 7 2 16 10 8 9 19 14 24
11 5 -3 10 -1 12 3 1 5 59 42 127 82 68 41 158 98 198 127 41 29 81 53 89 53
8 0 13 3 12 8 -2 4 26 34 61 66 240 221 341 414 343 656 2 214 -90 402 -283
584 -122 115 -246 199 -464 317 -44 23 -83 47 -87 53 -4 6 -8 8 -8 4 0 -11
-113 40 -122 55 -4 7 -8 9 -8 5 0 -3 -48 13 -107 37 -60 23 -173 64 -253 91
-80 27 -147 51 -150 54 -3 3 -16 6 -30 8 -13 1 -27 6 -30 10 -3 4 -18 8 -34 9
-16 0 -31 5 -35 10 -3 4 -19 9 -35 10 -16 0 -31 5 -35 10 -3 4 -17 9 -31 10
-14 1 -90 17 -170 36 -80 19 -244 54 -365 78 -121 24 -222 46 -225 49 -3 3
-27 6 -54 7 -27 1 -52 5 -55 10 -3 5 -30 9 -60 10 -30 1 -57 6 -60 10 -3 5
-30 9 -60 10 -30 1 -57 6 -60 11 -3 4 -35 8 -70 9 -35 1 -66 5 -70 10 -3 4
-35 9 -71 11 -35 1 -66 6 -70 10 -3 4 -23 7 -45 8 -36 1 -356 35 -494 52 l-55
7 -122 155 c-67 85 -120 159 -117 164 4 5 2 6 -4 3 -5 -4 -15 4 -22 16 -10 19
-8 40 13 118 32 123 92 427 107 547 7 50 15 92 18 92 3 0 7 44 9 98 2 53 7 98
12 100 4 2 6 64 3 138 -5 105 -3 134 7 134 10 0 10 3 0 15 -10 12 -11 43 -7
120 4 63 2 105 -4 105 -5 0 -9 16 -9 36 0 145 -82 468 -157 617 -13 26 -21 47
-18 47 3 0 -3 10 -15 22 -11 12 -20 25 -20 30 0 4 -6 16 -14 25 -8 10 -44 54
-79 99 -96 120 -213 210 -363 281 -43 20 -81 39 -84 43 -3 3 -18 6 -34 7 -16
0 -31 5 -35 10 -3 4 -19 9 -36 11 -16 2 -32 8 -36 13 -3 6 -18 7 -32 3 -15 -3
-27 -2 -27 2 0 5 -27 7 -60 6 -39 -3 -60 0 -60 7 0 7 -21 11 -50 11 -29 0 -50
-4 -50 -11z m-91 -825 c3 -5 20 -9 38 -10 48 -2 197 -77 271 -137 35 -29 84
-79 110 -112 49 -65 127 -220 117 -234 -3 -5 0 -11 6 -13 6 -2 11 -17 12 -33
1 -17 6 -33 11 -36 5 -4 9 -22 10 -40 0 -19 5 -37 9 -40 4 -3 9 -32 10 -65 1
-32 6 -62 12 -66 15 -11 11 -431 -4 -436 -8 -3 -9 -16 -5 -40 5 -35 0 -31
-117 93 -179 190 -636 646 -748 746 -119 108 -335 294 -364 314 -11 8 -18 17
-15 20 13 13 183 65 197 60 8 -3 18 0 22 7 4 6 24 12 43 12 20 0 36 3 36 7 0
11 50 15 204 13 76 -1 141 -6 145 -10z m-2101 -30 c34 -4 60 -10 58 -13 -2 -3
15 -7 38 -7 45 -1 212 -49 220 -63 3 -5 -52 -60 -122 -122 -263 -235 -715
-693 -997 -1013 l-69 -79 -8 29 c-5 16 -6 55 -2 87 4 38 2 57 -5 57 -7 0 -11
44 -11 135 0 74 3 135 8 135 4 0 8 35 9 78 3 148 77 366 163 477 53 68 107
124 156 163 85 66 282 140 340 129 13 -2 24 0 24 4 0 11 111 12 198 3z m979
-445 c114 -77 235 -168 262 -198 13 -14 20 -20 16 -12 -18 32 327 -263 489
-419 258 -248 611 -625 784 -837 l44 -54 -23 -84 -22 -85 -89 0 c-49 0 -87 4
-84 8 2 4 -336 9 -752 11 -416 1 -760 5 -766 8 -5 4 -6 1 -1 -7 7 -11 -19 -12
-135 -6 -95 5 -145 4 -149 -3 -4 -6 -86 -11 -214 -13 -114 -2 -207 -6 -207 -9
0 -3 -69 -9 -152 -13 -84 -4 -229 -14 -323 -22 -350 -29 -345 -29 -347 -8 0
10 -1 26 0 34 0 8 -4 18 -10 21 -6 4 -11 21 -11 38 0 17 -4 31 -8 31 -5 0 -11
16 -15 35 -6 32 -1 41 62 117 100 121 304 356 418 483 225 248 746 759 775
760 3 0 31 24 61 53 79 77 291 234 306 228 8 -3 49 -29 91 -57z m513 -2119 c0
-6 160 -9 427 -8 312 2 428 -1 430 -9 3 -7 11 -9 19 -6 8 3 14 0 14 -6 0 -6
-4 -11 -9 -11 -5 0 -9 -10 -9 -22 0 -13 -27 -95 -60 -183 -84 -221 -94 -245
-103 -245 -5 0 -6 -6 -3 -14 3 -7 -2 -21 -11 -30 -9 -9 -14 -16 -11 -16 13 0
-262 -615 -282 -630 -4 -3 -8 -12 -10 -20 -7 -32 -194 -400 -203 -400 -6 0 -8
-4 -4 -9 3 -5 -2 -16 -10 -25 -9 -8 -16 -19 -16 -23 0 -21 -185 -364 -203
-375 -6 -4 -8 -8 -4 -8 9 0 -97 -189 -265 -471 l-140 -237 -51 -6 c-28 -3 -70
-6 -92 -6 -41 0 -42 0 -95 88 -30 48 -53 90 -51 95 1 4 -2 7 -7 7 -5 0 -18 15
-29 33 -168 276 -221 370 -216 379 4 6 3 8 -3 5 -10 -6 -85 118 -245 408 -135
243 -240 445 -231 445 5 0 3 4 -4 8 -16 10 -214 413 -208 422 3 5 1 10 -4 12
-5 1 -11 10 -13 18 -2 8 -9 21 -16 28 -7 8 -10 17 -7 22 3 5 1 10 -3 12 -16 6
-195 415 -187 428 3 5 2 10 -2 12 -13 5 -44 79 -38 89 4 5 2 9 -4 9 -9 0 -35
63 -36 85 0 6 -3 12 -7 15 -3 3 -10 18 -13 33 -7 27 -6 28 20 21 21 -5 26 -4
20 5 -6 10 7 12 54 9 33 -1 61 1 61 6 0 5 31 6 69 2 48 -5 70 -4 73 4 2 8 53
12 161 13 86 1 157 5 157 10 0 5 38 7 85 5 47 -2 85 1 85 6 0 4 46 5 101 1 79
-6 103 -4 109 6 7 10 100 13 479 12 288 -1 469 2 466 8 -4 5 12 9 34 9 23 0
41 -4 41 -10z m1520 -61 c0 -8 15 -10 44 -7 l45 5 79 -106 c201 -269 393 -544
396 -568 2 -8 12 -23 23 -32 40 -32 502 -743 495 -763 -1 -5 2 -8 7 -8 9 0
265 -425 261 -436 -1 -4 2 -10 8 -13 8 -5 122 -198 122 -206 0 -2 16 -31 35
-64 19 -32 35 -64 35 -69 0 -12 -168 -55 -182 -46 -5 4 -14 1 -18 -5 -4 -7
-24 -13 -46 -14 -21 -1 -42 -6 -45 -10 -3 -5 -23 -9 -45 -10 -21 -1 -42 -6
-45 -11 -4 -5 -26 -9 -50 -9 -24 -1 -47 -5 -51 -11 -3 -5 -27 -9 -52 -10 -25
-1 -46 -4 -46 -7 0 -4 -15 -9 -32 -12 -360 -63 -752 -121 -785 -114 -12 2 -24
1 -25 -4 -2 -4 -37 -9 -78 -11 -41 -1 -78 -7 -81 -11 -3 -5 -47 -9 -97 -10
-49 -1 -88 -5 -86 -8 5 -9 -123 -19 -157 -12 -19 4 -34 1 -38 -6 -5 -8 -43
-13 -107 -14 -54 -1 -102 -5 -105 -10 -3 -5 -60 -9 -125 -10 -65 0 -122 -5
-125 -10 -4 -5 -64 -9 -135 -10 -71 0 -131 -3 -134 -7 -6 -9 -170 -18 -170
-10 0 9 33 54 44 62 6 4 7 8 3 8 -5 0 0 15 11 33 11 17 57 97 102 177 45 80
85 147 88 150 4 3 8 10 9 15 1 6 62 125 136 265 74 140 183 356 243 480 59
124 112 227 116 228 5 2 6 7 3 12 -3 5 0 14 7 22 7 7 14 18 15 23 4 23 177
410 185 416 6 3 9 8 7 10 -5 8 23 79 31 79 5 0 7 6 4 14 -3 7 2 21 11 30 9 9
14 16 11 16 -3 0 6 28 19 63 120 310 157 402 164 411 5 6 9 16 10 21 0 25 24
95 32 95 5 0 8 3 8 8 -4 23 4 32 26 32 14 0 25 -5 25 -11z m-4086 -131 c34
-98 137 -351 231 -568 52 -119 95 -223 97 -231 2 -7 9 -20 16 -27 7 -8 10 -17
7 -22 -3 -5 -1 -10 3 -12 8 -3 180 -358 185 -381 1 -6 8 -18 15 -25 7 -8 10
-17 7 -22 -3 -5 -1 -10 4 -12 5 -1 11 -10 13 -18 2 -8 9 -21 16 -28 7 -8 10
-17 7 -22 -3 -5 -1 -10 3 -12 12 -5 205 -369 202 -383 0 -3 6 -13 15 -21 8 -9
13 -20 10 -25 -4 -5 -2 -9 2 -9 5 0 42 -60 83 -132 40 -73 95 -170 122 -216
27 -46 45 -88 42 -94 -4 -6 -3 -9 2 -5 8 5 162 -241 180 -287 5 -14 -9 -16
-142 -16 -329 1 -1134 35 -1144 49 -3 4 -59 8 -124 8 -65 1 -122 5 -125 10 -3
5 -53 10 -110 10 -57 1 -107 5 -110 10 -3 5 -46 9 -95 10 -49 1 -92 6 -95 10
-3 5 -42 9 -85 10 -44 1 -82 6 -85 10 -3 4 -37 9 -75 10 -38 1 -72 6 -75 10
-3 4 -31 9 -61 10 -81 4 -510 75 -593 99 -16 5 -13 14 25 85 23 43 46 79 51
79 4 0 6 4 2 9 -3 5 3 17 12 27 10 10 16 18 15 18 -9 2 22 56 31 56 6 0 8 3 4
6 -11 11 209 404 226 404 6 0 7 3 4 6 -7 7 4 27 122 224 41 69 81 131 90 138
9 8 11 11 4 7 -22 -11 435 710 465 733 9 6 13 12 9 12 -13 0 352 522 376 537
15 10 88 20 152 22 l50 1 19 -52z m5058 37 c204 -28 553 -87 558 -94 3 -4 25
-7 49 -8 24 0 46 -4 50 -9 3 -5 26 -10 50 -11 25 -2 47 -6 50 -10 3 -5 24 -9
45 -10 22 -1 42 -5 45 -10 3 -4 21 -9 40 -10 19 -1 38 -8 42 -14 4 -6 11 -9
17 -5 22 13 542 -145 542 -165 0 -4 6 -6 14 -3 7 3 20 -1 27 -8 8 -7 23 -15
34 -16 11 -2 22 -7 25 -10 3 -4 12 -8 20 -10 8 -2 69 -29 136 -62 277 -135
459 -298 524 -468 11 -28 17 -58 14 -67 -3 -8 -2 -15 4 -15 5 0 12 -21 15 -47
7 -64 -3 -154 -16 -146 -6 4 -8 0 -4 -10 8 -22 -15 -87 -59 -158 -45 -75 -163
-193 -262 -262 -96 -68 -252 -158 -263 -152 -4 3 -9 1 -11 -4 -1 -5 -10 -11
-18 -13 -8 -2 -21 -9 -28 -16 -8 -7 -18 -10 -23 -7 -5 4 -9 2 -9 -3 0 -20
-466 -200 -480 -185 -5 4 -41 67 -80 138 -40 72 -99 178 -132 237 -33 59 -59
110 -58 114 1 4 -3 10 -8 13 -5 3 -53 80 -107 171 -53 91 -108 182 -121 203
-14 20 -21 37 -17 37 4 0 0 6 -8 13 -9 6 -49 66 -89 132 -41 66 -145 227 -232
358 -87 130 -155 237 -150 237 4 0 2 4 -5 8 -17 11 -235 324 -220 317 6 -3 2
2 -10 11 -24 17 -30 34 -13 34 5 0 60 -7 122 -15z m-6065 -147 c-222 -337
-337 -516 -397 -613 -142 -233 -175 -283 -182 -278 -5 2 -8 -5 -8 -16 0 -12
-4 -21 -10 -21 -5 0 -9 -4 -7 -8 2 -9 -217 -393 -236 -415 -7 -7 -13 -18 -14
-24 -1 -6 -41 -82 -89 -170 -48 -87 -105 -192 -127 -233 -23 -41 -46 -78 -51
-82 -6 -4 -8 -8 -3 -8 8 0 -78 -176 -90 -183 -15 -9 -401 127 -414 146 -3 5
-10 8 -15 8 -19 -2 -74 21 -74 30 0 6 -4 8 -9 4 -5 -3 -17 2 -25 11 -9 8 -16
12 -16 9 0 -10 -164 79 -234 127 -34 22 -83 59 -110 82 -59 49 -157 166 -150
178 3 4 1 8 -4 8 -15 0 -60 102 -72 168 -19 95 5 263 43 304 6 8 13 20 15 28
2 8 10 21 19 28 9 6 13 12 9 12 -11 0 49 74 104 130 56 55 138 121 125 100 -5
-8 5 -1 21 16 16 17 61 49 99 71 102 59 275 144 275 136 0 -5 4 -3 8 4 12 19
449 187 487 188 6 0 13 3 16 7 3 5 18 9 35 10 16 1 32 6 35 11 3 4 17 9 30 10
13 0 26 5 29 9 3 4 17 9 30 10 14 2 27 6 30 9 19 21 652 175 672 163 6 -4 13
-1 17 5 4 6 27 12 52 14 24 1 47 6 50 11 4 4 30 9 58 9 28 0 51 4 51 9 0 4 10
8 21 8 20 0 20 -2 6 -22z m6932 -2573 c72 -140 164 -336 164 -352 0 -7 3 -13
7 -13 6 0 53 -105 50 -115 0 -3 6 -13 15 -21 8 -9 13 -19 10 -24 -3 -5 -2 -10
3 -12 17 -7 214 -483 204 -493 -4 -3 -1 -9 6 -13 27 -17 259 -683 245 -705 -3
-5 0 -13 7 -17 8 -5 13 -22 13 -39 0 -17 4 -31 8 -31 8 0 57 -198 83 -335 25
-128 48 -316 44 -352 -2 -18 0 -33 4 -33 4 0 8 -81 8 -180 0 -99 -3 -180 -8
-180 -4 0 -6 -17 -4 -38 10 -106 -95 -420 -164 -489 -16 -15 -27 -29 -26 -31
7 -8 -56 -75 -108 -116 -163 -128 -368 -184 -576 -157 -92 13 -215 40 -224 50
-3 3 -16 7 -30 9 -13 1 -27 6 -30 10 -3 4 -9 7 -15 7 -21 0 -135 48 -135 57 0
5 -4 7 -9 4 -14 -9 -276 130 -273 143 1 7 -2 10 -7 7 -27 -17 -564 359 -686
479 -22 22 -43 40 -47 40 -4 0 -71 57 -150 126 -242 214 -819 812 -810 840 1
5 -2 8 -6 7 -5 -2 -53 49 -106 112 -54 63 -117 138 -141 165 -196 226 -721
916 -707 929 3 3 1 6 -5 6 -9 0 -138 172 -160 215 -9 17 1 37 56 120 l66 100
54 -3 c31 -2 57 1 61 8 4 6 68 11 176 12 93 2 172 6 175 11 3 4 64 9 135 10
71 1 132 5 135 10 3 4 58 8 122 10 64 1 117 5 117 8 0 3 39 9 88 13 143 11
706 75 856 97 76 11 144 18 151 15 8 -3 15 0 17 5 2 6 30 12 63 13 33 2 68 6
78 11 9 4 26 5 37 2 11 -3 20 -1 20 5 0 6 11 7 27 4 15 -4 29 -3 33 4 4 6 31
12 61 13 30 1 57 6 60 10 4 5 30 10 58 10 28 0 51 4 51 9 0 4 10 8 23 8 28 0
719 139 726 146 3 3 16 4 29 2 19 -2 35 -25 81 -113z m-7739 -64 c3 -3 27 -7
55 -9 27 -1 52 -6 55 -10 3 -4 27 -8 54 -9 27 -1 52 -6 55 -10 3 -4 30 -9 60
-10 30 -2 58 -8 62 -14 4 -7 14 -9 23 -6 9 4 91 -4 184 -18 185 -27 641 -81
770 -91 45 -4 82 -10 82 -13 0 -3 50 -7 112 -8 61 -1 114 -6 117 -11 3 -4 64
-8 135 -9 71 -1 132 -5 135 -10 3 -5 80 -9 170 -11 91 -1 167 -5 170 -9 3 -5
114 -10 246 -11 148 -2 241 -6 243 -13 3 -6 111 -7 317 -3 361 8 318 20 405
-110 47 -71 51 -82 40 -100 -23 -39 -273 -400 -318 -461 -25 -33 -52 -66 -60
-72 -9 -7 -13 -13 -9 -13 25 0 -498 -672 -742 -955 -266 -307 -646 -709 -662
-699 -5 3 -8 1 -7 -4 4 -14 -246 -238 -441 -393 -95 -77 -264 -200 -375 -274
-190 -127 -429 -261 -446 -250 -5 3 -10 1 -12 -5 -5 -16 -215 -87 -308 -104
-117 -23 -298 -21 -393 3 -83 22 -187 68 -187 84 0 6 -3 7 -6 4 -9 -9 -118 69
-158 113 -116 128 -188 290 -228 510 -22 123 -16 471 10 665 24 171 89 506
100 515 4 3 8 20 8 39 1 18 5 36 10 40 5 3 10 21 11 40 1 19 6 37 10 40 5 3 9
19 10 35 0 16 5 31 10 35 4 3 9 22 10 41 2 19 7 36 13 38 6 2 8 7 5 11 -9 16
145 487 164 501 4 3 8 16 8 29 1 13 6 27 10 30 4 3 10 15 11 26 2 11 7 22 10
25 4 3 9 14 10 25 9 49 189 476 206 487 6 4 8 8 4 8 -6 0 130 309 161 369 9
17 18 19 44 14 17 -3 34 -9 37 -12z"/>
<path d="M7077 7900 c-80 -13 -192 -47 -252 -77 -114 -58 -229 -168 -282 -269
-15 -30 -32 -54 -36 -54 -5 0 -6 -4 -2 -9 3 -5 -1 -15 -8 -23 -7 -7 -13 -22
-14 -33 -1 -28 -26 -139 -33 -145 -8 -8 -6 -280 3 -280 4 0 7 -8 7 -18 0 -31
28 -127 54 -186 14 -31 25 -57 24 -59 -5 -11 162 -185 199 -208 18 -12 30 -25
27 -31 -3 -5 0 -8 7 -7 18 3 69 -21 69 -33 0 -4 3 -7 8 -6 4 1 36 -8 72 -20
36 -12 99 -27 140 -33 102 -16 315 -6 405 18 141 39 292 140 377 253 47 63
103 178 113 233 4 20 10 37 14 37 4 0 8 26 9 58 1 31 7 59 12 60 13 5 13 155
0 168 -6 6 -11 36 -13 67 -1 31 -4 57 -7 57 -3 0 -13 28 -23 63 -33 113 -118
239 -217 320 -67 55 -184 112 -280 136 -97 25 -283 35 -373 21z m336 -270
c146 -55 266 -219 271 -367 0 -28 4 -49 9 -46 4 2 7 -25 7 -61 0 -36 -4 -66
-8 -66 -4 0 -6 -16 -4 -35 2 -20 0 -35 -6 -35 -6 0 -8 -8 -5 -18 9 -37 -48
-152 -108 -216 -70 -75 -132 -111 -228 -131 -202 -42 -385 14 -498 153 -24 29
-41 57 -38 62 3 4 1 10 -4 12 -5 1 -11 10 -13 18 -2 8 -6 17 -10 20 -4 3 -9
17 -10 30 -2 14 -7 28 -12 32 -6 4 -10 38 -10 77 -1 39 -4 71 -8 71 -5 0 -8 9
-8 20 0 11 5 20 10 20 6 0 8 16 4 40 -7 44 21 170 38 170 5 0 7 4 4 8 -8 14
53 111 98 156 48 48 130 92 196 105 25 5 97 7 160 6 90 -2 128 -8 173 -25z"/>
</g>
</svg>
